<svg width="730" height="651" viewBox="0 0 730 651" fill="none" xmlns="http://www.w3.org/2000/svg" xmlns:xlink="http://www.w3.org/1999/xlink">
<rect x="0.508545" y="0.97467" width="728.99" height="649.469" fill="url(#pattern0)"/>
<defs>
<pattern id="pattern0" patternContentUnits="objectBoundingBox" width="1" height="1">
<use xlink:href="#image0" transform="translate(-0.0150611) scale(0.00139206 0.0015625)"/>
</pattern>
</defs>
<path d="M220.993 535.772L440.286 543.89L509.014 529.987V552.008L440.981 572L220.993 560.837V535.772Z" fill="#3595F6" fill-opacity="0.75"/>
<path d="M221.986 534.757V509.387L440.783 512.736L510.007 509.387V529.683L441.18 542.875L221.986 534.757Z" fill="#3595F6" fill-opacity="0.75"/>
<path d="M221.986 508.372V483.002H441.478H510.007V506.343L442.471 513.446L221.986 508.372Z" fill="#3595F6" fill-opacity="0.75"/>
<path d="M221.986 484.017V458.647L441.776 454.893L509.014 461.692V484.017H441.478" fill="#3595F6" fill-opacity="0.75"/>
<path d="M221.986 457.633V431.248L441.974 427.899L510.007 439.062V460.677L441.478 453.878L221.986 457.633Z" fill="#3595F6" fill-opacity="0.75"/>
<path d="M220.993 430.233V406.182L440.485 393.7L511 417.041V438.656L440.485 426.174L220.993 430.233Z" fill="#3595F6" fill-opacity="0.75"/>
<path d="M220.993 407.908V382.538L441.676 365.997L511 395.02V416.026L441.18 394.005L220.993 407.908Z" fill="#3595F6" fill-opacity="0.75"/>
<path d="M220.993 382.538V357.168L441.974 336.568L511 373.709V394.715L439.491 365.591L220.993 382.538Z" fill="#3595F6" fill-opacity="0.75"/>
<path d="M220.993 356.153V331.798L442.471 306.732L511 351.383V373.405L442.173 334.842L220.993 356.153Z" fill="#3595F6" fill-opacity="0.75"/>
<path d="M220.993 330.783V306.428L441.974 277.303L511 329.058V350.064L441.18 307.138L220.993 330.783Z" fill="#3595F6" fill-opacity="0.75"/>
<path d="M220 306.428V282.073L440.783 248.585L511 308.762V328.754L441.478 277.303L220 306.428Z" fill="#3595F6" fill-opacity="0.75"/>
<path d="M220.993 281.058V256.703L440.683 221.185L510.007 286.132V307.443L441.776 248.28L220.993 281.058Z" fill="#3595F6" fill-opacity="0.75"/>
<path d="M220.993 256.703V231.333L441.776 192.771L510.007 264.111V285.117L441.478 220.17L220.993 256.703Z" fill="#3595F6" fill-opacity="0.75"/>
<path d="M220.993 230.318V204.949L440.286 160.602L510.007 240.771V263.807L441.478 189.422L220.993 230.318Z" fill="#3595F6" fill-opacity="0.75"/>
<path d="M221.986 205.963V180.593L440.485 131.883L510.007 218.141V241.481L439.789 161.008L221.986 205.963Z" fill="#3595F6" fill-opacity="0.75"/>
<path d="M220.993 180.593V155.224L439.293 102.454L510.007 196.12V219.156L440.783 131.579L220.993 180.593Z" fill="#3595F6" fill-opacity="0.75"/>
<path d="M220.993 155.224V128.839L441.478 71.3L510.007 174.505V195.815L441.18 102.759L220.993 155.224Z" fill="#3595F6" fill-opacity="0.75"/>

</svg>
